<?xml version="1.0" standalone="no"?>
<!DOCTYPE svg PUBLIC "-//W3C//DTD SVG 20010904//EN"
        "http://www.w3.org/TR/2001/REC-SVG-20010904/DTD/svg10.dtd">
<svg version="1.0" xmlns="http://www.w3.org/2000/svg"
     width="512.000000pt" height="512.000000pt" viewBox="0 0 512.000000 512.000000"
     preserveAspectRatio="xMidYMid meet">

    <g transform="translate(0.000000,512.000000) scale(0.100000,-0.100000)"
       fill="#000000" stroke="none">
        <path d="M1341 4839 c-265 -52 -490 -240 -590 -491 -58 -146 -56 -69 -56
-1788 0 -1719 -2 -1642 56 -1788 91 -229 275 -397 519 -474 l75 -23 1215 0
1215 0 75 23 c274 86 474 292 553 570 l22 77 3 1233 c2 879 -1 1245 -8 1275
-10 37 -85 116 -673 705 -364 365 -674 670 -689 678 -23 12 -153 14 -850 13
-453 -1 -843 -5 -867 -10z m1489 -893 l0 -583 23 -33 c12 -19 38 -43 57 -54
34 -20 51 -21 618 -24 l582 -3 0 -1097 c0 -719 -4 -1119 -11 -1162 -29 -183
-183 -349 -360 -389 -59 -14 -2298 -14 -2356 -1 -178 41 -333 207 -362 390
-15 90 -15 3050 0 3140 29 179 171 336 349 386 34 10 216 13 753 13 l707 1 0
-584z m1040 -368 c0 -5 -162 -8 -360 -8 l-360 0 0 367 0 368 360 -360 c198
-198 360 -363 360 -367z"/>
        <path d="M1632 3553 c-49 -24 -75 -68 -80 -132 -4 -66 20 -111 78 -145 33 -20
51 -21 290 -21 239 0 257 1 290 21 58 34 82 79 78 145 -5 65 -32 109 -82 133
-50 24 -525 23 -574 -1z"/>
        <path d="M1650 2709 c-14 -6 -36 -20 -48 -32 -78 -72 -68 -185 21 -251 28 -21
31 -21 937 -21 906 0 909 0 937 21 98 73 98 195 0 268 -28 21 -32 21 -925 23
-582 1 -906 -2 -922 -8z"/>
        <path d="M1640 1848 c-59 -30 -90 -77 -90 -137 0 -60 28 -111 76 -138 l39 -23
893 0 c804 0 897 2 928 16 50 24 77 68 82 133 4 66 -20 111 -78 145 -34 21
-48 21 -920 24 l-885 2 -45 -22z"/>
    </g>
</svg>
